HIERARCHY
ROOT Hips
{
	OFFSET 0.000000 0.000000 0.000000 
	CHANNELS 6 Xposition Yposition Zposition Zrotation Yrotation Xrotation
	JOINT LeftUpLeg
	{
		OFFSET 1.363060 -1.794630 0.839290 
		CHANNELS 3 Zrotation Yrotation Xrotation
		JOINT LeftLeg
		{
			OFFSET 2.448110 -6.726130 0.000000 
			CHANNELS 3 Zrotation Yrotation Xrotation
			JOINT LeftFoot
			{
				OFFSET 2.562200 -7.039590 0.000000 
				CHANNELS 3 Zrotation Yrotation Xrotation
				JOINT LeftToeBase
				{
					OFFSET 0.157640 -0.433110 2.322550 
					CHANNELS 3 Zrotation Yrotation Xrotation
					End Site
					{
						OFFSET 0.000000 0.000000 0.000000 
					}
				}
			}
		}
	}
	JOINT RightUpLeg
	{
		OFFSET -1.305520 -1.794630 0.839290 
		CHANNELS 3 Zrotation Yrotation Xrotation
		JOINT RightLeg
		{
			OFFSET -2.542530 -6.985550 0.000000 
			CHANNELS 3 Zrotation Yrotation Xrotation
			JOINT RightFoot
			{
				OFFSET -2.568260 -7.056230 0.000000 
				CHANNELS 3 Zrotation Yrotation Xrotation
				JOINT RightToeBase
				{
					OFFSET -0.164730 -0.452590 2.363150 
					CHANNELS 3 Zrotation Yrotation Xrotation
					End Site
					{
						OFFSET 0.000000 0.000000 0.000000 
					}
				}
			}
		}
	}
	JOINT Spine
	{
		OFFSET 0.028270 2.035590 -0.193380 
		CHANNELS 3 Zrotation Yrotation Xrotation
		JOINT Spine1
		{
			OFFSET 0.056720 2.048850 -0.042750 
			CHANNELS 3 Zrotation Yrotation Xrotation
			JOINT Neck1
			{
				OFFSET -0.054170 1.746240 0.172020 
				CHANNELS 3 Zrotation Yrotation Xrotation
				JOINT Head
				{
					OFFSET 0.104070 1.761360 -0.123970 
					CHANNELS 3 Zrotation Yrotation Xrotation
					End Site
					{
						OFFSET 0.000000 0.000000 0.000000 
					}
				}
			}
			JOINT LeftArm
			{
				OFFSET 3.362410 1.200890 -0.311210 
				CHANNELS 3 Zrotation Yrotation Xrotation
				JOINT LeftForeArm
				{
					OFFSET 4.983000 -0.000000 -0.000000 
					CHANNELS 3 Zrotation Yrotation Xrotation
					JOINT LeftHand
					{
						OFFSET 3.483560 -0.000000 -0.000000 
						CHANNELS 3 Zrotation Yrotation Xrotation
						JOINT LeftHandIndex1
						{
							OFFSET 0.715260 -0.000000 -0.000000 
							CHANNELS 3 Zrotation Yrotation Xrotation
							End Site
							{
								OFFSET 0.000000 0.000000 0.000000 
							}
						}
					}
				}
			}
			JOINT RightArm
			{
				OFFSET -3.136600 1.374050 -0.404650 
				CHANNELS 3 Zrotation Yrotation Xrotation
				JOINT RightForeArm
				{
					OFFSET -5.241900 -0.000000 -0.000000 
					CHANNELS 3 Zrotation Yrotation Xrotation
					JOINT RightHand
					{
						OFFSET -3.444170 -0.000000 -0.000000 
						CHANNELS 3 Zrotation Yrotation Xrotation
						JOINT RightHandIndex1
						{
							OFFSET -0.622530 -0.000000 -0.000000 
							CHANNELS 3 Zrotation Yrotation Xrotation
							End Site
							{
								OFFSET 0.000000 0.000000 0.000000 
							}
						}
					}
				}
			}
		}
	}
}
MOTION
Frames: 6
Frame Time: 0.041667
-0.566664 18.325513 4.619712 0.325695 -3.270964 3.042744 -16.105588 -11.408491 -3.788959 0.694919 6.504160 21.330605 -0.627393 7.604096 -16.465617 7.992600 -16.113800 -52.535900 3.491455 1.693307 -1.639243 -0.041124 0.542598 1.333858 0.242874 -0.800413 4.980305 0.000000 0.000000 0.000000 -7.938641 1.664662 8.266461 0.589251 1.608121 -10.913474 8.276532 -7.049234 36.562197 1.457700 -2.086500 10.592500 -92.802115 13.827543 19.245667 26.135383 -34.548026 -6.917379 0.521889 0.030999 6.983353 -7.125000 0.000000 0.000000 100.982177 -18.145916 3.795707 -36.886348 43.766059 -12.295995 1.245657 -3.431892 13.387091 7.125000 0.000000 0.000000 
-0.565489 18.325220 4.621180 0.386183 -3.289290 3.058144 -16.153545 -11.459835 -3.761439 0.692504 6.507563 21.330393 -0.622270 7.610750 -16.534645 7.985200 -16.108300 -52.509200 3.488457 1.693529 -1.641917 -0.040370 0.541861 1.333981 0.242710 -0.800559 4.978853 0.000000 0.000000 0.000000 -8.235253 1.673817 8.108744 0.662832 1.618254 -10.880732 8.273158 -7.056466 36.599691 1.451300 -2.086300 10.599700 -92.764099 13.858250 19.272844 26.056805 -34.470721 -6.892712 0.536599 0.024036 6.814417 -7.125000 0.000000 0.000000 101.024030 -18.175521 3.765504 -36.884828 43.766440 -12.298161 1.246752 -3.433816 13.374020 7.125000 0.000000 0.000000 
-0.565979 18.325416 4.620397 0.402876 -3.281384 3.110569 -16.139992 -11.400859 -3.822683 0.693316 6.511496 21.326345 -0.612410 7.552997 -16.481716 7.974100 -16.100200 -52.469500 3.489548 1.692997 -1.648820 -0.039912 0.538920 1.333470 0.241880 -0.802889 4.976699 0.000000 0.000000 0.000000 -8.405162 1.660601 7.824584 0.696577 1.616411 -10.822246 8.331456 -7.075183 36.624120 1.463000 -2.085900 10.596400 -92.724711 13.899777 19.327572 26.070768 -34.476825 -6.897650 0.536629 0.025576 6.765186 -7.125000 0.000000 0.000000 101.058992 -18.212828 3.737486 -36.889276 43.762394 -12.299564 1.250633 -3.434461 13.392617 7.125000 0.000000 0.000000 
-0.567544 18.326101 4.618831 0.396714 -3.258905 3.177309 -16.103490 -11.320379 -3.904272 0.694564 6.514497 21.319861 -0.604889 7.492071 -16.396486 7.970400 -16.097400 -52.456000 3.493433 1.691861 -1.657769 -0.039709 0.534714 1.332490 0.240655 -0.806580 4.974321 0.000000 0.000000 0.000000 -8.462609 1.632143 7.498541 0.724156 1.608820 -10.749449 8.336089 -7.077987 36.650183 1.461100 -2.084800 10.587300 -92.705353 13.947661 19.319562 26.083342 -34.476581 -6.901790 0.536227 0.023802 6.778439 -7.125000 0.000000 0.000000 101.077656 -18.250318 3.718432 -36.896842 43.758097 -12.302237 1.255324 -3.435128 13.445047 7.125000 0.000000 0.000000 
-0.567740 18.325416 4.619419 0.394100 -3.255471 3.168811 -16.104128 -11.341555 -3.876353 0.692906 6.512424 21.313953 -0.607024 7.507208 -16.414162 7.979500 -16.104100 -52.488700 3.493980 1.691720 -1.658633 -0.039716 0.534280 1.332373 0.240529 -0.806983 4.974120 0.000000 0.000000 0.000000 -8.459508 1.619620 7.469137 0.731528 1.603811 -10.744463 8.317516 -7.068421 36.679865 1.457700 -2.081700 10.591800 -92.713228 13.960110 19.278570 26.082845 -34.474548 -6.903323 0.537438 0.019402 6.806493 -7.125000 0.000000 0.000000 101.071559 -18.254745 3.722836 -36.895073 43.755849 -12.302201 1.256944 -3.436030 13.494275 7.125000 0.000000 0.000000 
-0.566566 18.324828 4.621180 0.385345 -3.270853 3.102414 -16.130693 -11.458203 -3.768008 0.689435 6.508285 21.313856 -0.616565 7.585168 -16.521716 7.971100 -16.097900 -52.458400 3.491758 1.692517 -1.652454 -0.039949 0.537183 1.333050 0.241377 -0.804475 4.975862 0.000000 0.000000 0.000000 -8.390806 1.626617 7.697642 0.700376 1.601193 -10.802920 8.328597 -7.061564 36.697599 1.465500 -2.077500 10.606600 -92.737108 13.937275 19.255456 26.085389 -34.487143 -6.908284 0.538772 0.017320 6.813526 -7.125000 0.000000 0.000000 101.041886 -18.221236 3.735048 -36.879038 43.747939 -12.293144 1.261890 -3.436715 13.529397 7.125000 0.000000 0.000000 
